<svg width="580" height="580" viewBox="0 0 580 580" fill="none" xmlns="http://www.w3.org/2000/svg">
<g clip-path="url(#clip0_216_32)">
<rect width="580" height="580" rx="26" fill="#101010"/>
<path d="M98.4688 170.087H142.123L200.421 424H153.451C153.911 424 150.872 406.686 144.333 372.057H100.127L91.9759 410.6H46.5258L94.3244 210.426H106.896L98.4688 170.087ZM128.17 250.765L108.415 341.25H147.787L128.17 250.765Z" fill="#EDEDED"/>
<path d="M318.251 12.1863V245.101H273.906L273.768 189.98L233.706 202.414L233.291 265.27H184.664L184.526 45.4795L233.153 45.6177V154.201H273.768L273.63 12.0482L318.251 12.1863Z" fill="#EDEDED"/>
<path d="M311.762 316.844C353.022 316.844 373.651 334.849 373.651 370.859V479.028C376.322 531.523 356.706 562.698 314.801 572.553L226.526 572.276V479.028L226.664 316.844H311.762ZM280.679 370.859V528.76H309.137C317.702 525.537 321.985 518.307 321.985 507.071V409.816C321.985 383.845 317.702 370.859 309.137 370.859H280.679Z" fill="#EDEDED"/>
<path d="M517.565 69.7389L517.703 326H477.503L408.982 199.734L408.568 315.777L359.526 315.639L359.664 132.872H383.701L370.301 91.4278H416.028L466.727 214.102V69.7389H517.565Z" fill="#EDEDED"/>
</g>
<defs>
<clipPath id="clip0_216_32">
<rect width="580" height="580" fill="white"/>
</clipPath>
</defs>
</svg>
